# xmcd CD database file
#
# Track frame offsets:
#	150
#	13047
#	24980
#	38406
#	51483
#	64606
#	78145
#	91989
#	104680
#	118332
#	132157
#	145114
#	158724
#	172323
#	185030
#
# Disc length: 2650 seconds
#
# Revision: 2
# Processed by: cddbd v1.5.1PL0 Copyright (c) Steve Scherf et al.
# Submitted via: CDex 1.51
#
DISCID=ca0a580f
DTITLE=Clarence Williams - Take Your Black Bottom Dance Outside
DYEAR=1900
DGENRE=
TTITLE0=Would Ja?
TTITLE1=Senegalese Stomp
TTITLE2=Cushion Foot Stomp
TTITLE3=P.D.Q. Blues
TTITLE4=Baltimore
TTITLE5=Take Your Black Bottom Dance Outside
TTITLE6=You'll Long for Me
TTITLE7=Yama Yama Blues
TTITLE8=Church Street Sobbin' Blues
TTITLE9=Close Fit Blues
TTITLE10=Shake it Down
TTITLE11=Red River Blues
TTITLE12=Mountain City Blues
TTITLE13=Freeze Out
TTITLE14=Railroad Rhythm
EXTD=\n\n
EXTT0=
EXTT1=
EXTT2=
EXTT3=
EXTT4=
EXTT5=
EXTT6=
EXTT7=
EXTT8=
EXTT9=
EXTT10=
EXTT11=
EXTT12=
EXTT13=
EXTT14=
PLAYORDER=
